<svg width="141" height="133" viewBox="0 0 141 133" fill="none" xmlns="http://www.w3.org/2000/svg">
<path d="M59.8634 80.7092C59.5361 76.4404 61.9139 73.2805 62.8191 72.7868C63.7242 72.2931 65.3656 75.225 66.2656 74.7389C67.1707 74.2528 67.0122 69.5965 68.5616 68.761C70.111 67.9255 72.3354 71.4423 74.0638 70.9562C75.787 70.4701 80.5478 53.6377 84.4085 54.6176C88.2693 55.5898 84.0148 65.1378 89.067 67.8267C92.0942 69.437 94.9987 65.9581 95.9038 67.0595C96.8089 68.1533 94.7532 74.3743 95.9038 74.6174C97.0543 74.8604 101.012 72.3462 102.551 75.4681C103.518 77.4202 101.401 82.6614 101.401 82.6614L59.8634 80.7092Z" fill="#0B4920"/>
<path d="M58.2424 79.0078H105.497C106.775 79.0078 107.808 80.5497 107.808 82.4411V123.808C107.808 128.692 105.139 132.665 101.846 132.665H61.9804C58.6413 132.665 55.9259 128.639 55.9259 123.671V82.4411C55.9259 80.5421 56.964 79.0078 58.2373 79.0078H58.2424Z" fill="#04D30D"/>
<path d="M67.7741 20.5579C67.3599 22.0846 74.4371 19.9426 78.7171 23.1556C83.0023 26.3687 86.0244 31.5946 86.3772 33.2125C86.7352 34.838 84.9556 36.9497 85.7227 37.6485C86.4897 38.3473 86.8426 36.0534 87.3488 35.8635C87.8551 35.6736 93.2601 45.4342 93.3214 49.4144C93.3828 53.3946 83.938 51.2906 80.7932 57.6331C77.6483 63.9756 82.9307 65.3809 82.9307 65.3809C82.9307 65.3809 93.2754 70.8195 88.8931 67.6976C81.8517 62.6843 93.4595 53.5693 94.7481 52.1337C96.0367 50.6981 91.3425 40.345 90.4681 38.1954C87.8755 31.8149 88.4329 28.0398 87.7783 27.9106C86.546 27.6676 88.3613 33.2505 87.6863 32.8251C86.9755 32.377 80.4813 22.9961 80.4097 20.5503C80.3739 19.3425 79.7807 21.9327 79.5353 21.9707C79.2898 22.0087 73.4041 10.6681 73.1024 10.6301C72.8007 10.5921 72.2791 11.1618 72.5297 11.891C72.7752 12.6202 75.8126 17.0106 75.649 18.6817C75.4853 20.3452 68.178 19.0463 67.7689 20.5503L67.7741 20.5579Z" fill="#0B4920"/>
<path d="M94.9731 66.9076C97.7651 66.224 101.784 69.2623 103.589 69.0876C105.395 68.9053 106.571 63.5199 107.026 63.7022C107.481 63.8845 106.535 66.262 106.801 67.6064C107.067 68.9509 110.927 72.9691 113.719 67.4242C116.511 61.8792 114.665 67.3634 113.965 68.2141C113.269 69.0648 111.623 70.4093 111.833 71.017C112.037 71.6246 116.225 78.6356 121.804 75.7112C127.388 72.7868 122.842 76.6835 121.998 76.8734C121.149 77.0557 118.398 77.0557 116.225 76.8734C114.052 76.6911 116.082 85.3199 118.853 86.991C121.625 88.6621 119.851 88.3658 119.084 87.9481C118.322 87.5303 116.921 85.5782 116.716 86.0035C116.511 86.4289 120.587 93.2348 119.329 95.5895C118.071 97.9442 118.475 94.0475 117.984 92.2169C117.493 90.3863 116.481 86.8923 116.072 86.9758C115.663 87.0594 114.538 90.2268 114.236 90.4699C113.934 90.713 114.047 89.3761 114.318 88.6013C114.594 87.8265 115.77 85.7377 114.619 80.018C113.469 74.2984 111.168 72.7412 110.309 72.1867C109.45 71.6246 104.152 70.7207 103.538 71.4271C103.278 71.7234 106.642 74.1313 106.78 75.0124C106.918 75.8935 106.376 76.015 106.126 75.696C102.899 71.5563 97.5708 69.1712 95.5509 73.4856C93.5259 77.8001 89.9055 68.1609 94.9833 66.9228L94.9731 66.9076Z" fill="#0B4920"/>
<path d="M51.9629 55.9392C47.4579 62.0691 60.0782 76.0682 62.6912 73.9945C65.3043 71.9285 57.7259 48.1003 51.9629 55.9392Z" fill="#0B4920"/>
<path d="M68.4593 48.8903C63.3559 47.4015 66.2502 68.1533 68.0962 69.9535C69.9422 71.7537 76.4211 51.2146 68.4593 48.8903Z" fill="#04D30D"/>
<path d="M69.6354 22.0618C69.9269 13.0076 59.7049 14.2609 59.2089 19.9882C58.718 25.723 69.5536 24.6216 69.6354 22.0618Z" fill="#0B4920"/>
<path d="M73.8541 12.1493C73.4808 -2.03213 61.5662 -1.81944 60.1446 5.41938C58.723 12.6582 73.9206 14.6483 73.8541 12.1493Z" fill="#04D30D"/>
<path d="M101.048 32.0959C101.278 23.3911 108.591 23.5202 109.465 27.9638C110.339 32.4074 101.007 33.6303 101.048 32.0959Z" fill="#04D30D"/>
<path d="M101.611 24.333C98.343 17.0942 104.311 10.8048 106.775 13.6305C109.245 16.4637 102.183 25.6091 101.611 24.333Z" fill="#04D30D"/>
<path d="M121.947 69.3307C118.68 62.0919 124.647 55.8025 127.112 58.6282C129.582 61.4614 122.52 70.6068 121.947 69.3307Z" fill="#04D30D"/>
<path d="M127.649 66.7557C131.336 55.4683 140.929 61.9095 140.356 68.5179C139.783 75.1263 126.999 68.7458 127.649 66.7557Z" fill="#04D30D"/>
<path d="M80.3432 20.8997C78.5995 20.5807 75.02 8.16907 78.4103 5.02439C81.8006 1.88732 83.4881 7.54621 83.6773 11.7315C83.7949 14.3369 82.2404 21.2491 80.3432 20.8921V20.8997Z" fill="#04D30D"/>
<path d="M86.234 31.625C82.6494 23.2316 72.6217 23.3759 71.1695 31.0021C69.7172 38.6283 87.359 34.2532 86.234 31.625Z" fill="#0B4920"/>
<path d="M86.234 35.7951C81.2841 33.843 77.8017 43.5732 79.8421 47.7281C81.8875 51.8907 89.3431 37.018 86.234 35.7951Z" fill="#04D30D"/>
<path d="M97.668 45.5405C99.6213 40.6184 105.482 39.912 106.458 43.3985C107.435 46.885 104.423 48.9663 103.257 49.0574C102.091 49.1486 96.8242 47.6522 97.6628 45.5405H97.668Z" fill="#04D30D"/>
<path d="M94.4516 51.1691C95.5357 49.6727 103.15 59.7372 99.8208 64.044C96.4919 68.3508 92.9891 53.1895 94.4516 51.1691Z" fill="#0B4920"/>
<path d="M87.7937 29.8703C83.9534 24.9634 88.4022 15.894 90.5243 17.6866C92.6465 19.4793 89.3943 31.9212 87.7937 29.8703Z" fill="#0B4920"/>
<path d="M91.9101 28.9513C97.0543 31.9516 101.186 23.5126 99.8106 19.4945C98.435 15.4763 90.197 27.9486 91.9101 28.9513Z" fill="#04D30D"/>
<path d="M100.864 37.0788C98.66 31.2908 91.0255 35.2634 90.6777 39.3272C90.3249 43.3985 102.904 42.4187 100.864 37.0788Z" fill="#0B4920"/>
<path d="M111.827 104.925C116.685 110.409 109.47 121.248 106.197 118.126C102.925 115.004 110.452 103.375 111.827 104.925Z" fill="#0B4920"/>
<path d="M97.3816 78.1343C102.24 83.6184 96.3026 94.3969 93.03 91.275C89.7573 88.1532 96.0112 76.5847 97.3816 78.1343Z" fill="#0B4920"/>
<path d="M122.689 105.115C132.159 106.991 130.911 124.583 125.926 126.011C120.94 127.439 121.022 104.78 122.689 105.115Z" fill="#04D30D"/>
<path d="M123.768 100.238C126.938 104.613 133.35 107.523 135.294 102.342C137.237 97.1542 133.34 95.0805 130.523 94.8603C127.7 94.64 123.773 100.238 123.773 100.238H123.768Z" fill="#04D30D"/>
<path d="M118.097 91.3662C122.597 96.7364 121.559 109.505 117.018 110.622C112.477 111.738 116.69 89.6875 118.097 91.3662Z" fill="#0B4920"/>
<path d="M115.018 88.9051C116.414 96.2199 109.92 101.56 107.087 98.5898C104.254 95.6199 114.144 84.3097 115.018 88.9051Z" fill="#04D30D"/>
<path d="M112.932 70.265C116.762 69.7864 119.738 62.2514 118.051 59.4257C116.363 56.6077 113.791 59.7296 113.229 61.2487C112.666 62.7679 111.29 70.4625 112.937 70.2574L112.932 70.265Z" fill="#04D30D"/>
<path d="M106.663 65.3201C107.972 66.3303 113.505 53.6149 109.526 50.7817C105.543 47.9484 104.888 63.9529 106.663 65.3201Z" fill="#0B4920"/>
<path d="M117.989 86.8847C121.559 92.2169 127.332 84.9705 125.977 81.955C124.622 78.9394 116.501 84.6591 117.989 86.8847Z" fill="#0B4920"/>
<path d="M120.602 76.1973C122.725 68.6167 129.679 70.0599 130.671 74.3211C131.663 78.5824 119.897 78.7191 120.602 76.1973Z" fill="#04D30D"/>
<path d="M106.422 73.873C110.779 72.3614 113.99 83.3906 112.211 86.5276C110.431 89.6647 102.398 75.263 106.422 73.873Z" fill="#0B4920"/>
<path d="M4.88352 64.5455V82H1.72159V64.5455H4.88352ZM11.2564 74.3295V82H8.17116V68.9091H11.12V71.1335H11.2734C11.5746 70.4006 12.0547 69.8182 12.7138 69.3864C13.3786 68.9545 14.1996 68.7386 15.1768 68.7386C16.0803 68.7386 16.8672 68.9318 17.5376 69.3182C18.2138 69.7045 18.7365 70.2642 19.1058 70.9972C19.4808 71.7301 19.6655 72.6193 19.6598 73.6648V82H16.5746V74.142C16.5746 73.267 16.3473 72.5824 15.8928 72.0881C15.4439 71.5937 14.8217 71.3466 14.0263 71.3466C13.4865 71.3466 13.0064 71.4659 12.5859 71.7045C12.1712 71.9375 11.8445 72.2756 11.6058 72.7188C11.3729 73.1619 11.2564 73.6989 11.2564 74.3295ZM27.6541 82.2301C26.6257 82.2301 25.7053 81.9659 24.8928 81.4375C24.0803 80.9091 23.4382 80.142 22.9666 79.1364C22.495 78.1307 22.2592 76.9091 22.2592 75.4716C22.2592 74.017 22.4979 72.7898 22.9751 71.7898C23.4581 70.7841 24.1087 70.0256 24.9268 69.5142C25.745 68.9972 26.657 68.7386 27.6626 68.7386C28.4297 68.7386 29.0604 68.8693 29.5547 69.1307C30.049 69.3864 30.4411 69.696 30.7308 70.0597C31.0206 70.4176 31.245 70.7557 31.4041 71.0739H31.532V64.5455H34.6257V82H31.5916V79.9375H31.4041C31.245 80.2557 31.0149 80.5937 30.7138 80.9517C30.4126 81.304 30.0149 81.6051 29.5206 81.8551C29.0263 82.1051 28.4041 82.2301 27.6541 82.2301ZM28.5149 79.6989C29.1683 79.6989 29.7251 79.5227 30.1854 79.1705C30.6456 78.8125 30.995 78.3153 31.2337 77.679C31.4723 77.0426 31.5916 76.3011 31.5916 75.4545C31.5916 74.608 31.4723 73.8722 31.2337 73.2472C31.0007 72.6222 30.6541 72.1364 30.1939 71.7898C29.7393 71.4432 29.1797 71.2699 28.5149 71.2699C27.8274 71.2699 27.2536 71.4489 26.7933 71.8068C26.3331 72.1648 25.9865 72.6591 25.7536 73.2898C25.5206 73.9205 25.4041 74.642 25.4041 75.4545C25.4041 76.2727 25.5206 77.0028 25.7536 77.6449C25.9922 78.2812 26.3416 78.7841 26.8018 79.1534C27.2678 79.517 27.8388 79.6989 28.5149 79.6989ZM43.6236 82.2557C42.3452 82.2557 41.2372 81.9744 40.2997 81.4119C39.3622 80.8494 38.6349 80.0625 38.1179 79.0511C37.6065 78.0398 37.3509 76.858 37.3509 75.5057C37.3509 74.1534 37.6065 72.9687 38.1179 71.9517C38.6349 70.9347 39.3622 70.1449 40.2997 69.5824C41.2372 69.0199 42.3452 68.7386 43.6236 68.7386C44.902 68.7386 46.0099 69.0199 46.9474 69.5824C47.8849 70.1449 48.6094 70.9347 49.1207 71.9517C49.6378 72.9687 49.8963 74.1534 49.8963 75.5057C49.8963 76.858 49.6378 78.0398 49.1207 79.0511C48.6094 80.0625 47.8849 80.8494 46.9474 81.4119C46.0099 81.9744 44.902 82.2557 43.6236 82.2557ZM43.6406 79.7841C44.3338 79.7841 44.9134 79.5937 45.3793 79.2131C45.8452 78.8267 46.1918 78.3097 46.419 77.6619C46.652 77.0142 46.7685 76.2926 46.7685 75.4972C46.7685 74.696 46.652 73.9716 46.419 73.3239C46.1918 72.6705 45.8452 72.1506 45.3793 71.7642C44.9134 71.3778 44.3338 71.1847 43.6406 71.1847C42.9304 71.1847 42.3395 71.3778 41.8679 71.7642C41.402 72.1506 41.0526 72.6705 40.8196 73.3239C40.5923 73.9716 40.4787 74.696 40.4787 75.4972C40.4787 76.2926 40.5923 77.0142 40.8196 77.6619C41.0526 78.3097 41.402 78.8267 41.8679 79.2131C42.3395 79.5937 42.9304 79.7841 43.6406 79.7841ZM1.72159 111V93.5455H8.26705C9.60795 93.5455 10.733 93.7955 11.642 94.2955C12.5568 94.7955 13.2472 95.483 13.7131 96.358C14.1847 97.2273 14.4205 98.2159 14.4205 99.3239C14.4205 100.443 14.1847 101.437 13.7131 102.307C13.2415 103.176 12.5455 103.861 11.625 104.361C10.7045 104.855 9.57102 105.102 8.22443 105.102H3.88636V102.503H7.7983C8.58239 102.503 9.22443 102.366 9.72443 102.094C10.2244 101.821 10.5938 101.446 10.8324 100.969C11.0767 100.491 11.1989 99.9432 11.1989 99.3239C11.1989 98.7045 11.0767 98.1591 10.8324 97.6875C10.5938 97.2159 10.2216 96.8494 9.71591 96.5881C9.21591 96.321 8.57102 96.1875 7.78125 96.1875H4.88352V111H1.72159ZM20.1158 93.5455V111H17.0305V93.5455H20.1158ZM27.0554 111.264C26.2259 111.264 25.4787 111.116 24.8139 110.821C24.1548 110.52 23.6321 110.077 23.2457 109.491C22.8651 108.906 22.6747 108.185 22.6747 107.327C22.6747 106.588 22.8111 105.977 23.0838 105.494C23.3565 105.011 23.7287 104.625 24.2003 104.335C24.6719 104.045 25.2031 103.827 25.794 103.679C26.3906 103.526 27.0071 103.415 27.6435 103.347C28.4105 103.267 29.0327 103.196 29.5099 103.134C29.9872 103.065 30.3338 102.963 30.5497 102.827C30.7713 102.685 30.8821 102.466 30.8821 102.17V102.119C30.8821 101.477 30.6918 100.98 30.3111 100.628C29.9304 100.276 29.3821 100.099 28.6662 100.099C27.9105 100.099 27.3111 100.264 26.8679 100.594C26.4304 100.923 26.1349 101.312 25.9815 101.761L23.1009 101.352C23.3281 100.557 23.7031 99.892 24.2259 99.358C24.7486 98.8182 25.3878 98.4148 26.1435 98.1477C26.8991 97.875 27.7344 97.7386 28.6491 97.7386C29.2798 97.7386 29.9077 97.8125 30.5327 97.9602C31.1577 98.108 31.7287 98.3523 32.2457 98.6932C32.7628 99.0284 33.1776 99.4858 33.4901 100.065C33.8082 100.645 33.9673 101.369 33.9673 102.239V111H31.0014V109.202H30.8991C30.7116 109.565 30.4474 109.906 30.1065 110.224C29.7713 110.537 29.348 110.79 28.8366 110.983C28.331 111.17 27.7372 111.264 27.0554 111.264ZM27.8565 108.997C28.4759 108.997 29.0128 108.875 29.4673 108.631C29.9219 108.381 30.2713 108.051 30.5156 107.642C30.7656 107.233 30.8906 106.787 30.8906 106.304V104.761C30.794 104.841 30.6293 104.915 30.3963 104.983C30.169 105.051 29.9134 105.111 29.6293 105.162C29.3452 105.213 29.0639 105.259 28.7855 105.298C28.5071 105.338 28.2656 105.372 28.0611 105.401C27.6009 105.463 27.1889 105.565 26.8253 105.707C26.4616 105.849 26.1747 106.048 25.9645 106.304C25.7543 106.554 25.6491 106.878 25.6491 107.276C25.6491 107.844 25.8565 108.273 26.2713 108.562C26.6861 108.852 27.2145 108.997 27.8565 108.997Z" fill="white"/>
</svg>
